<svg xmlns="http://www.w3.org/2000/svg" width="960" height="560" viewBox="0 0 960 560" font-family="Segoe UI, Helvetica, Arial, sans-serif">
<rect width="100%" height="100%" fill="#fcfcfb"/>
<text x="70.0" y="38.0" font-size="20" fill="#0b0b0b" text-anchor="start" font-weight="600">How many moving units fit in a 60 fps frame in Godot 4?</text>
<text x="70.0" y="62.0" font-size="13" fill="#52514e" text-anchor="start" font-weight="400">Frame time of a frame that runs one simulation step, by unit count. Lower is better.</text>
<text x="70.0" y="82.0" font-size="12" fill="#52514e" text-anchor="start" font-weight="400">12th Gen Intel(R) Core(TM) i7-12700F | NVIDIA GeForce RTX 3060 Ti | Godot 4.7.1-stable (official) | Windows</text>
<line x1="70" x2="710" y1="490.0" y2="490.0" stroke="#e4e3df"/>
<text x="60.0" y="494.0" font-size="12" fill="#52514e" text-anchor="end" font-weight="400">0 ms</text>
<line x1="70" x2="710" y1="397.5" y2="397.5" stroke="#e4e3df"/>
<text x="60.0" y="401.5" font-size="12" fill="#52514e" text-anchor="end" font-weight="400">5 ms</text>
<line x1="70" x2="710" y1="305.0" y2="305.0" stroke="#e4e3df"/>
<text x="60.0" y="309.0" font-size="12" fill="#52514e" text-anchor="end" font-weight="400">10 ms</text>
<line x1="70" x2="710" y1="212.5" y2="212.5" stroke="#e4e3df"/>
<text x="60.0" y="216.5" font-size="12" fill="#52514e" text-anchor="end" font-weight="400">15 ms</text>
<line x1="70" x2="710" y1="120.0" y2="120.0" stroke="#e4e3df"/>
<text x="60.0" y="124.0" font-size="12" fill="#52514e" text-anchor="end" font-weight="400">20 ms</text>
<text x="70.0" y="512.0" font-size="12" fill="#52514e" text-anchor="middle" font-weight="400">100</text>
<text x="203.8" y="512.0" font-size="12" fill="#52514e" text-anchor="middle" font-weight="400">250</text>
<text x="305.1" y="512.0" font-size="12" fill="#52514e" text-anchor="middle" font-weight="400">500</text>
<text x="406.3" y="512.0" font-size="12" fill="#52514e" text-anchor="middle" font-weight="400">1,000</text>
<text x="507.5" y="512.0" font-size="12" fill="#52514e" text-anchor="middle" font-weight="400">2,000</text>
<text x="608.8" y="512.0" font-size="12" fill="#52514e" text-anchor="middle" font-weight="400">4,000</text>
<text x="710.0" y="512.0" font-size="12" fill="#52514e" text-anchor="middle" font-weight="400">8,000</text>
<text x="390.0" y="538.0" font-size="12" fill="#52514e" text-anchor="middle" font-weight="400">units moving (log scale)</text>
<line x1="70" x2="710" y1="181.7" y2="181.7" stroke="#52514e" stroke-width="1.5" stroke-dasharray="6 4"/>
<text x="76.0" y="175.7" font-size="12" fill="#52514e" text-anchor="start" font-weight="400">16.7 ms: the whole frame budget at 60 fps</text>
<text x="702.0" y="106.0" font-size="12" fill="#0b0b0b" text-anchor="end" font-weight="400">8,000 units: 169 ms frames, 45 of 60 steps a second</text>
<path d="M70.0 475.0 L203.8 468.9 L305.1 460.0 L406.3 437.3 L507.5 390.5 L608.8 284.5 L710.0 112.0" fill="none" stroke="#2a78d6" stroke-width="2" stroke-linejoin="round"/>
<circle cx="70.0" cy="475.0" r="4.5" fill="#2a78d6" stroke="#fcfcfb" stroke-width="2"/>
<circle cx="203.8" cy="468.9" r="4.5" fill="#2a78d6" stroke="#fcfcfb" stroke-width="2"/>
<circle cx="305.1" cy="460.0" r="4.5" fill="#2a78d6" stroke="#fcfcfb" stroke-width="2"/>
<circle cx="406.3" cy="437.3" r="4.5" fill="#2a78d6" stroke="#fcfcfb" stroke-width="2"/>
<circle cx="507.5" cy="390.5" r="4.5" fill="#2a78d6" stroke="#fcfcfb" stroke-width="2"/>
<circle cx="608.8" cy="284.5" r="4.5" fill="#2a78d6" stroke="#fcfcfb" stroke-width="2"/>
<path d="M70.0 479.3 L203.8 475.6 L305.1 469.3 L406.3 451.3 L507.5 421.9 L608.8 364.2 L710.0 198.1" fill="none" stroke="#eb6834" stroke-width="2" stroke-linejoin="round"/>
<rect x="65.5" y="474.8" width="9" height="9" rx="1" fill="#eb6834" stroke="#fcfcfb" stroke-width="2"/>
<rect x="199.3" y="471.1" width="9" height="9" rx="1" fill="#eb6834" stroke="#fcfcfb" stroke-width="2"/>
<rect x="300.6" y="464.8" width="9" height="9" rx="1" fill="#eb6834" stroke="#fcfcfb" stroke-width="2"/>
<rect x="401.8" y="446.8" width="9" height="9" rx="1" fill="#eb6834" stroke="#fcfcfb" stroke-width="2"/>
<rect x="503.0" y="417.4" width="9" height="9" rx="1" fill="#eb6834" stroke="#fcfcfb" stroke-width="2"/>
<rect x="604.3" y="359.7" width="9" height="9" rx="1" fill="#eb6834" stroke="#fcfcfb" stroke-width="2"/>
<rect x="705.5" y="193.6" width="9" height="9" rx="1" fill="#eb6834" stroke="#fcfcfb" stroke-width="2"/>
<path d="M70.0 480.6 L203.8 479.1 L305.1 476.3 L406.3 471.5 L507.5 459.5 L608.8 436.7 L710.0 389.7" fill="none" stroke="#1baf7a" stroke-width="2" stroke-linejoin="round"/>
<path d="M70.0 474.6 L75.5 484.6 L64.5 484.6 Z" fill="#1baf7a" stroke="#fcfcfb" stroke-width="2"/>
<path d="M203.8 473.1 L209.3 483.1 L198.3 483.1 Z" fill="#1baf7a" stroke="#fcfcfb" stroke-width="2"/>
<path d="M305.1 470.3 L310.6 480.3 L299.6 480.3 Z" fill="#1baf7a" stroke="#fcfcfb" stroke-width="2"/>
<path d="M406.3 465.5 L411.8 475.5 L400.8 475.5 Z" fill="#1baf7a" stroke="#fcfcfb" stroke-width="2"/>
<path d="M507.5 453.5 L513.0 463.5 L502.0 463.5 Z" fill="#1baf7a" stroke="#fcfcfb" stroke-width="2"/>
<path d="M608.8 430.7 L614.3 440.7 L603.3 440.7 Z" fill="#1baf7a" stroke="#fcfcfb" stroke-width="2"/>
<path d="M710.0 383.7 L715.5 393.7 L704.5 393.7 Z" fill="#1baf7a" stroke="#fcfcfb" stroke-width="2"/>
<path d="M70.0 480.6 L203.8 478.5 L305.1 475.2 L406.3 468.9 L507.5 456.1 L608.8 432.3 L710.0 384.0" fill="none" stroke="#eda100" stroke-width="2" stroke-linejoin="round"/>
<path d="M70.0 474.6 L76.0 480.6 L70.0 486.6 L64.0 480.6 Z" fill="#eda100" stroke="#fcfcfb" stroke-width="2"/>
<path d="M203.8 472.5 L209.8 478.5 L203.8 484.5 L197.8 478.5 Z" fill="#eda100" stroke="#fcfcfb" stroke-width="2"/>
<path d="M305.1 469.2 L311.1 475.2 L305.1 481.2 L299.1 475.2 Z" fill="#eda100" stroke="#fcfcfb" stroke-width="2"/>
<path d="M406.3 462.9 L412.3 468.9 L406.3 474.9 L400.3 468.9 Z" fill="#eda100" stroke="#fcfcfb" stroke-width="2"/>
<path d="M507.5 450.1 L513.5 456.1 L507.5 462.1 L501.5 456.1 Z" fill="#eda100" stroke="#fcfcfb" stroke-width="2"/>
<path d="M608.8 426.3 L614.8 432.3 L608.8 438.3 L602.8 432.3 Z" fill="#eda100" stroke="#fcfcfb" stroke-width="2"/>
<path d="M710.0 378.0 L716.0 384.0 L710.0 390.0 L704.0 384.0 Z" fill="#eda100" stroke="#fcfcfb" stroke-width="2"/>
<circle cx="726.0" cy="126.0" r="4.5" fill="#2a78d6" stroke="#fcfcfb" stroke-width="2"/>
<text x="738.0" y="130.0" font-size="12" fill="#0b0b0b" text-anchor="start" font-weight="400">NavigationAgent3D + avoidance</text>
<text x="738.0" y="145.0" font-size="11" fill="#52514e" text-anchor="start" font-weight="400">falls behind at 8,000</text>
<rect x="721.5" y="189.6" width="9" height="9" rx="1" fill="#eb6834" stroke="#fcfcfb" stroke-width="2"/>
<text x="738.0" y="198.1" font-size="12" fill="#0b0b0b" text-anchor="start" font-weight="400">NavigationAgent3D, no avoidance</text>
<text x="738.0" y="213.1" font-size="11" fill="#52514e" text-anchor="start" font-weight="400">15.8 ms at 8,000</text>
<path d="M726.0 374.0 L732.0 380.0 L726.0 386.0 L720.0 380.0 Z" fill="#eda100" stroke="#fcfcfb" stroke-width="2"/>
<text x="738.0" y="384.0" font-size="12" fill="#0b0b0b" text-anchor="start" font-weight="400">Flow field + MultiMesh</text>
<text x="738.0" y="399.0" font-size="11" fill="#52514e" text-anchor="start" font-weight="400">5.7 ms at 8,000</text>
<path d="M726.0 404.0 L731.5 414.0 L720.5 414.0 Z" fill="#1baf7a" stroke="#fcfcfb" stroke-width="2"/>
<text x="738.0" y="414.0" font-size="12" fill="#0b0b0b" text-anchor="start" font-weight="400">One path per squad of 20</text>
<text x="738.0" y="429.0" font-size="11" fill="#52514e" text-anchor="start" font-weight="400">5.4 ms at 8,000</text>
</svg>
